<svg width="32" height="32" viewBox="0 0 32 32" fill="none" xmlns="http://www.w3.org/2000/svg">
<path d="M2.72998 6.67L15.85 2V30L4.76998 23.88L2.72998 6.67Z" fill="#DC7200"/>
<path d="M15.85 2L29.27 6.59L27.08 23.8L15.85 30V2Z" fill="#A55600"/>
<path d="M15.85 5.14L24.38 23.37H21.47L19.65 19.21H15.85V16.73H18.62L15.85 11L13.52 16.73H15.85V19.21H12.38L10.75 23.37H7.60999L15.85 5.14Z" fill="white"/>
<path d="M15.64 27.93L17.31 26.93C17.3966 27.2187 17.5677 27.4749 17.8011 27.6656C18.0346 27.8563 18.3198 27.9728 18.62 28C19.29 28 19.72 27.74 19.72 26.71V19.71H21.72V26.71C21.7691 27.125 21.7239 27.5457 21.5879 27.9408C21.4519 28.336 21.2286 28.6954 20.9345 28.9923C20.6405 29.2892 20.2833 29.516 19.8895 29.6559C19.4957 29.7957 19.0755 29.845 18.66 29.8C18.0194 29.8344 17.3834 29.6741 16.8354 29.3404C16.2875 29.0067 15.8534 28.515 15.59 27.93M22.88 27.71L24.55 26.71C24.7346 27.0826 25.0197 27.3962 25.3731 27.6153C25.7266 27.8344 26.1342 27.9503 26.55 27.95C26.7004 27.9876 26.8567 27.9952 27.01 27.9723C27.1633 27.9495 27.3106 27.8967 27.4435 27.8169C27.5764 27.7372 27.6922 27.632 27.7845 27.5074C27.8767 27.3829 27.9435 27.2414 27.981 27.091C27.9884 27.061 27.9947 27.0307 28 27C28 26.3 27.44 26 26.51 25.64L26 25.42C24.52 24.79 23.54 24 23.54 22.33C23.5424 21.97 23.6157 21.614 23.7557 21.2823C23.8957 20.9507 24.0997 20.6499 24.356 20.3971C24.6123 20.1443 24.9159 19.9445 25.2495 19.8091C25.5831 19.6737 25.94 19.6054 26.3 19.608C26.3807 19.608 26.4614 19.612 26.542 19.62C27.135 19.5741 27.7283 19.7055 28.2464 19.9975C28.7645 20.2895 29.1842 20.729 29.452 21.26L27.862 22.26C27.758 21.9962 27.5758 21.7705 27.3399 21.6132C27.104 21.4559 26.8255 21.3745 26.542 21.38C26.4171 21.3644 26.2903 21.3756 26.17 21.4126C26.0497 21.4497 25.9386 21.5119 25.8441 21.595C25.7496 21.6782 25.6738 21.7805 25.6217 21.8951C25.5696 22.0097 25.5425 22.1341 25.542 22.26C25.542 22.87 25.922 23.12 26.802 23.5L27.312 23.72C29 24.47 30 25.23 30 26.95C30 28.67 28.55 29.8 26.61 29.8C25.8529 29.8488 25.0978 29.6775 24.4359 29.3066C23.7741 28.9358 23.2337 28.3812 22.88 27.71Z" fill="#F7DF1E"/>
</svg>
